<?xml version="1.0" encoding="UTF-8"?>
<svg id="b" data-name="Layer 2" xmlns="http://www.w3.org/2000/svg" xmlns:xlink="http://www.w3.org/1999/xlink" viewBox="0 0 335.59 344.4">
  <defs>
    <filter id="d" data-name="drop-shadow-1" filterUnits="userSpaceOnUse">
      <feOffset dx="7" dy="7"/>
      <feGaussianBlur result="e" stdDeviation="5"/>
      <feFlood flood-color="#000" flood-opacity=".75"/>
      <feComposite in2="e" operator="in"/>
      <feComposite in="SourceGraphic"/>
    </filter>
    <linearGradient id="f" x1="34.25" y1="249.7" x2="34.25" y2="306.18" gradientUnits="userSpaceOnUse">
      <stop offset="0" stop-color="#ffdd83"/>
      <stop offset=".07" stop-color="#ffce6c"/>
      <stop offset=".24" stop-color="#ffb140"/>
      <stop offset=".32" stop-color="#ffa630"/>
      <stop offset=".5" stop-color="#ff831d"/>
      <stop offset=".71" stop-color="#ff640d"/>
      <stop offset=".88" stop-color="#ff5103"/>
      <stop offset="1" stop-color="#ff4b00"/>
    </linearGradient>
    <linearGradient id="g" x1="145.32" y1="249.89" x2="145.32" y2="305.6" xlink:href="#f"/>
    <linearGradient id="h" x1="238.79" y1="249.71" x2="238.79" y2="305.33" xlink:href="#f"/>
    <linearGradient id="i" x1="313.21" y1="248.85" x2="313.21" y2="306.4" xlink:href="#f"/>
    <linearGradient id="j" x1="191.97" y1="247.97" x2="191.97" y2="305.4" xlink:href="#f"/>
    <linearGradient id="k" x1="93.38" y1="249.8" x2="93.38" y2="305.68" xlink:href="#f"/>
    <linearGradient id="l" x1="278.04" y1="245.83" x2="278.04" y2="268.88" xlink:href="#f"/>
    <linearGradient id="m" data-name="New Gradient Swatch copy 4" x1="167.95" y1="79.8" x2="167.95" y2="104.74" gradientUnits="userSpaceOnUse">
      <stop offset="0" stop-color="#ffdd83"/>
      <stop offset=".1" stop-color="#ffce6c"/>
      <stop offset=".31" stop-color="#ffb140"/>
      <stop offset=".42" stop-color="#ffa630"/>
      <stop offset=".58" stop-color="#ff831d"/>
      <stop offset=".75" stop-color="#ff640d"/>
      <stop offset=".9" stop-color="#ff5103"/>
      <stop offset="1" stop-color="#ff4b00"/>
    </linearGradient>
    <linearGradient id="n" data-name="New Gradient Swatch copy 4" x1="166.47" y1="0" x2="166.47" y2="72.16" xlink:href="#m"/>
    <linearGradient id="o" data-name="New Gradient Swatch copy 4" x1="152.13" y1="17.29" x2="152.13" y2="70.03" xlink:href="#m"/>
    <linearGradient id="p" data-name="New Gradient Swatch copy 4" x1="179.8" y1="19.69" x2="179.8" y2="71.67" xlink:href="#m"/>
  </defs>
  <g id="c" data-name="Layer 1">
    <g style="filter: url(#d);">
      <line x1="168.58" y1="173.79" x2="168.16" y2="173.78" style="fill: none; stroke: #000; stroke-miterlimit: 10;"/>
      <line x1="168.4" y1="173.78" x2="168.34" y2="173.78" style="fill: none; stroke: #000; stroke-miterlimit: 10;"/>
      <path d="m168.37,173.67c0,.07,0,.15,0,.22" style="fill: none; stroke: #000; stroke-miterlimit: 10;"/>
      <line x1="168.87" y1="173.67" x2="167.86" y2="173.89" style="fill: none; stroke: #000; stroke-miterlimit: 10;"/>
      <g>
        <path d="m34.13,306.18c-5.97-8.68-11.77-17.09-17.55-25.49-1.32,2.92-1.24,20.23.25,25.04H0c2.9-17.02,1.5-34.36,2.1-51.59.04-1.19-.37-2.39-.71-4.4,4.06,0,7.97-.07,11.87.07.62.02,1.38.84,1.79,1.48,4.93,7.8,9.81,15.64,14.69,23.47,1.44,2.31,2.85,4.65,4.45,7.27,2.06-3.45,3.88-6.79,5.98-9.95,4.48-6.75,9.05-13.44,13.73-20.05.65-.92,2.08-1.64,3.23-1.77,3.34-.38,6.72-.41,9.7-.56-.3,2.58-.84,4.95-.81,7.31.17,14.05.41,28.11.81,42.16.06,2.06,1.04,4.09,1.69,6.5h-16.64v-26.63c-5.82,8.91-11.64,17.81-17.74,27.14Z" style="fill: url(#f); stroke-width: 0px;"/>
        <path d="m147.75,275.36c8.06,10.06,15.98,19.93,24.1,30.07-6.02,0-11.92.03-17.81-.05-.49,0-1.1-.58-1.43-1.05-1.56-2.22-3-4.52-4.56-6.75-2.9-4.16-5.85-8.29-8.66-12.27-1.63,1.76-3.57,3.83-5.48,5.94-.22.25-.37.66-.36,1,.1,4.39-.67,8.92,2.42,13.35h-17.2c2.25-7.5.84-15.4,1.06-23.24.22-7.82.18-15.66.13-23.49-.02-2.94-.4-5.87-.63-8.96h15.81c-2.28,7.54-1.34,15.29-1.66,23.4.73-.41,1.1-.5,1.29-.73,5.7-7.15,11.39-14.31,17.09-21.45.38-.48.92-1.19,1.4-1.19,5.59-.08,11.19-.05,16.46-.05-7.22,8.37-14.42,16.7-21.98,25.47Z" style="fill: url(#g); stroke-width: 0px;"/>
        <path d="m254.24,272.17v12.07h-22.93v8.51h28.57v12.58h-42.18c.15-3.91.37-7.77.42-11.63.15-11.31.28-22.63.29-33.94,0-3.37-.44-6.75-.68-10.04h40.9v12.85h-26.94v9.61h22.55Z" style="fill: url(#h); stroke-width: 0px;"/>
        <path d="m334.45,256.42c-2.8,4.1-5.18,7.59-7.74,11.34-3.48-3.17-7.59-5.41-12.42-5.5-1.82-.03-3.92.65-5.43,1.68-2.24,1.54-1.99,3.93.45,5.15,2.17,1.08,4.57,1.72,6.89,2.49,2.68.9,5.41,1.67,8.08,2.6,14.42,5.03,13.78,18.73,5.17,26.53-4.88,4.42-10.77,6.18-17.26,5.58-8.11-.75-15.2-3.88-21.36-9.56,2.91-3.31,5.62-6.4,7.97-9.08,4.47,1.95,8.52,3.9,12.71,5.47,2.45.92,5.04.55,7.28-1.05,2.5-1.78,2.45-4.21-.34-5.47-2.21-1-4.68-1.4-6.98-2.23-3.53-1.26-7.34-2.14-10.43-4.11-6.05-3.87-7.81-10-6.59-16.85,1.19-6.69,5.84-10.57,11.87-12.93,5.1-2,10.38-2.26,15.47-.16,4.3,1.77,8.4,4.02,12.67,6.11Z" style="fill: url(#i); stroke-width: 0px;"/>
        <path d="m199.76,305.4h-15.99c.24-2.98.69-5.96.7-8.95.03-11.99-.04-23.97-.15-35.96,0-1.07-.13-2.12-.28-3.01-.37-2.25-.56-4.52-.56-6.8v-2.71l17,1-1.56,6.51s-.29,8.28-.29,12.43c.02,9.34,0,18.69.17,28.03.05,3.1.62,6.19.97,9.47Z" style="fill: url(#j); stroke-width: 0px;"/>
        <path d="m101.43,305.68h-16.1c.31-3.88.8-7.46.85-11.06.19-13,.28-26.01.3-39.01,0-1.82-.63-3.64-1.04-5.81h15.6c-.19,2.52-.56,5.27-.59,8.01-.11,13-.2,26.01-.13,39.01.02,2.91.71,5.81,1.11,8.86Z" style="fill: url(#k); stroke-width: 0px;"/>
        <path d="m271.58,268.88c1.37-2.89,2.32-4.9,3.09-6.53-1.24-2.1-2.82-3.96-3.48-6.1-1.03-3.33,1.76-8.46,4.92-10,3.08-1.5,7.73,1.19,8.71,5.03,1.42,5.56-2.56,14.54-7.75,16.96-1.32.61-3.03.39-5.48.64Z" style="fill: url(#l); stroke-width: 0px;"/>
      </g>
      <g>
        <path d="m167.15,140.57c7.13-10.75,14.17-21.32,21.16-31.92,9.81-14.87,19.57-29.78,29.44-44.61.64-.96,2-2,3.05-2.02,7.43-.17,14.87-.09,22.68-.09v127.98h-25.85v-76.05c-.93,1.04-1.56,1.64-2.06,2.33-4.52,6.23-9.12,12.41-13.48,18.75-3.82,5.56-7.32,11.35-11.05,16.98-1.45,2.19-3.13,4.22-4.67,6.35-3.69,5.09-7.44,10.13-11,15.31-2.5,3.62-4.8,7.38-7.06,11.16-1.41,2.36-2.12,2.6-3.81.32-4.16-5.6-8.28-11.23-12.18-17.01-9.49-14.08-18.85-28.24-28.26-42.37-2.14-3.21-4.29-6.41-6.75-10.09v74.56h-26.46V61.94c7.81,0,15.78-.03,23.75.06.64,0,1.49.69,1.88,1.29,12.19,18.51,24.33,37.05,36.48,55.58,4.69,7.16,9.38,14.33,14.2,21.7Z" style="fill: #f2f2f2; stroke-width: 0px;"/>
        <path d="m198.54,48.11c-1.63-2.91-3.19-5.67-4.94-8.8,1.08-.19,2.03-.51,2.98-.5,18.5.06,36.99.19,55.49.25,10.54.04,15.09,4.52,15.09,15.19.04,48.52.05,97.05.05,145.57,0,7.24-5.46,13.13-12.75,13.2-18.31.18-36.62.07-54.93.14-38.23.14-76.46-.02-114.68.66-11.8.21-17.86-8.38-17.8-17.85.24-37.95.1-75.9.08-113.85,0-9.53-.26-19.07-.04-28.59.2-8.47,6.57-14.32,15.06-14.31,16.42,0,32.85.04,49.27.07.93,0,1.87,0,2.75,0,.87,2.97,1.68,5.74,2.6,8.88-1.88,0-3.7-.02-5.52,0-15.1.21-30.2.42-45.3.64-.75.01-1.51.04-2.26.09-4.53.33-6.86,2.69-6.86,7.14,0,42.01.02,84.02.04,126.03,0,4.63-.06,9.25,0,13.88.06,4.82,2.1,7.28,6.94,7.52,7.63.38,15.28.5,22.92.48,47.48-.09,94.96-.26,142.43-.39,6.69-.02,8.53-1.84,8.55-8.59.1-37.66.21-75.33.29-112.99.02-7.64.11-15.3-.15-22.93-.09-2.64-.84-5.37-1.87-7.82-.47-1.12-2.27-1.95-3.63-2.34-1.69-.48-3.54-.47-5.33-.5-13.96-.2-27.93-.38-41.9-.52-2.16-.02-4.33.17-6.58.27Z" style="fill: #fff; stroke-width: 0px;"/>
        <path d="m289.77,198.3c1.03-11.08,2.45-22.13,2.98-33.23.76-15.72.86-31.48,1.25-47.22.05-1.81-.72-2.9-2.4-3.69-8.03-3.77-11.15-10.64-11.38-19.03-.25-9.29,2.62-17.46,9.58-23.9,4.94-4.57,10.75-4.85,16.22-.84,13.02,9.55,14.93,34.59-1.15,43.3-1.62.88-2.21,2.09-2.15,3.89.54,16.87.76,33.76,1.67,50.6.53,9.85,2.12,19.65,3.31,29.47.53,4.39-.5,8.06-4.28,10.64-5.88,4.02-12.09,1.49-13.44-5.5-.28-1.47-.26-2.99-.38-4.49.06,0,.12,0,.18,0Zm-1.97-106.74c-3.1,6.05,1.52,14.57,8.5,14.98-4.42-4.47-7.83-8.98-8.5-14.98Zm11.11-16.19c4.48,3.51,7.84,7.3,9.19,12.49.85-6.64-3.69-13.19-9.19-12.49Zm3.32,124.42c.01-.43.02-.86.03-1.29-1.1-.87-2.11-2.29-3.32-2.49-1.9-.32-3.06,1.37-2.72,3.05.24,1.18,1.6,2.89,2.56,2.95,1.09.08,2.29-1.41,3.44-2.22Z" style="fill: #f2f2f2; stroke-width: 0px;"/>
        <path d="m142.08,79.8h51.74c-.11.89-.07,1.37-.23,1.77-2.9,7.46-6.66,14.58-13.35,19.12-9.52,6.45-24.98,5.74-32.4-6.23-2.26-3.64-3.72-7.79-5.43-11.76-.38-.87-.24-1.96-.34-2.9Zm7.34,8.38c3.66,2.47,35.33,2.34,39.54,0-1.9-2.11-35.62-2.2-39.54,0Z" style="fill: url(#m); stroke-width: 0px;"/>
        <g>
          <path d="m161.19,69.99c8.89-8.07,5.24-17.07,1.62-25.93-3.5-8.56-5.06-16.76.62-25.24,4.34-6.47,3.52-10.29-1.93-15.75-.64-.64-1.22-1.36-2.17-2.43,3.1-1.07,5.58-.82,7.92.89,4.03,2.94,6.08,9.18,4.47,14.81-.84,2.96-2.15,5.83-3.55,8.58-2.43,4.79-3.61,9.77-2.32,15.02.52,2.11,1.72,4.14,2.95,5.97,3.17,4.72,5.76,9.52,4.47,15.51-.83,3.86-3.02,6.87-5.84,9.45-2.17,1.98-4.19,1.65-6.25-.89Z" style="fill: url(#n); stroke-width: 0px;"/>
          <path d="m148.82,68.55c1.11-1.18,2.24-2.29,3.25-3.49,3.33-3.96,3.21-8.36-.27-12.13-1.09-1.17-2.21-2.32-3.27-3.52-8.26-9.42-7.16-22.64,2.53-30.52.44-.36.87-.88,1.37-.98,1.56-.3,3.15-.43,4.73-.63-.43,1.33-.59,2.85-1.35,3.96-5.72,8.44-5.49,17.65,1.78,25.01,6.21,6.28,4.26,18.2-3.42,22.72-1.73,1.02-3.55,1.91-5.34-.43Z" style="fill: url(#o); stroke-width: 0px;"/>
          <path d="m175.93,69.64c4.11-4.59,5.87-9.73,3.97-15.53-.73-2.24-2.21-4.34-3.71-6.22-3.12-3.93-5.84-7.93-5.24-13.27.66-5.93,3.35-10.72,8.21-14.24.38-.27.8-.65,1.22-.68.97-.06,1.95.07,2.93.13-.21.84-.21,1.81-.65,2.51-1.88,2.98-3.59,5.94-3.51,9.67.08,3.94,1.71,7.17,4.4,9.82,8.31,8.18,5.74,21.78-1.28,28.23-2.43,2.23-3.83,2.21-6.33-.42Z" style="fill: url(#p); stroke-width: 0px;"/>
        </g>
        <path d="m44.48,68.6c2.57.16,4.59.29,6.96.44,0,3.9,0,7.53,0,11.17,0,7.21-.1,14.42-.01,21.63.08,7.17-3.39,12.24-9.68,13.49-.76.15-1.62,2.2-1.62,3.37,0,17.51.17,35.02.23,52.53.04,11.44-.02,22.87-.07,34.31,0,1.13.13,2.62-.5,3.33-1.27,1.43-3.01,3.35-4.56,3.35-1.49,0-3.52-1.89-4.33-3.45-.82-1.58-.57-3.78-.56-5.71.14-28.49.32-56.98.49-85.47,0-.67,0-1.35,0-1.97-9.09-2.42-11.62-5.8-11.59-15.19.03-9.5.13-19-.02-28.5-.04-2.63.79-3.37,3.31-3.31,2.35.06,3.81.21,3.77,3.26-.11,9.38.09,18.77.19,28.15.01,1.37-.25,2.95.33,4.05.63,1.19,2.11,1.92,3.22,2.86.54-.97,1.49-1.91,1.54-2.91.18-3.77.07-7.55.08-11.33,0-6.64.02-13.28.04-19.92,0-1.23.11-2.45.16-3.6.65-.19.97-.34,1.3-.37,5.82-.5,5.8-.5,5.81,5.39.02,9.5,0,19,.2,28.5.03,1.42.98,3.93,1.75,4.02,2.61.33,3.4-1.87,3.43-4.08.1-8.35.1-16.71.13-25.06.01-2.84,0-5.68,0-9Z" style="fill: #f2f2f2; stroke-width: 0px;"/>
      </g>
      <g>
        <path d="m45.8,339.55c0,.46-.11.97-.34,1.51s-.59,1.07-1.08,1.59-1.12.94-1.88,1.27-1.65.49-2.67.49c-.77,0-1.47-.07-2.1-.22s-1.2-.37-1.72-.68-.99-.72-1.42-1.22c-.38-.46-.71-.97-.99-1.54s-.48-1.17-.61-1.82-.2-1.33-.2-2.05c0-1.17.17-2.23.51-3.16s.83-1.72,1.47-2.38,1.38-1.16,2.24-1.51,1.77-.52,2.74-.52c1.18,0,2.23.24,3.16.71s1.63,1.05,2.12,1.75.74,1.35.74,1.97c0,.34-.12.64-.36.9s-.53.39-.87.39c-.38,0-.66-.09-.85-.27s-.4-.49-.63-.93c-.38-.72-.84-1.26-1.36-1.62s-1.16-.54-1.93-.54c-1.21,0-2.18.46-2.9,1.38s-1.08,2.23-1.08,3.93c0,1.13.16,2.08.48,2.83s.77,1.32,1.35,1.69,1.27.56,2.05.56c.85,0,1.57-.21,2.16-.63s1.03-1.04,1.33-1.86c.13-.38.28-.7.47-.94s.48-.36.9-.36c.35,0,.65.12.91.37s.38.55.38.92Z" style="fill: #f2f2f2; stroke-width: 0px;"/>
        <path d="m60.89,342.5l-.7-1.83h-5.93l-.7,1.87c-.27.73-.5,1.22-.7,1.48s-.51.38-.95.38c-.37,0-.7-.14-.99-.41s-.43-.58-.43-.93c0-.2.03-.4.1-.62s.18-.51.33-.89l3.73-9.48c.11-.27.23-.6.38-.98s.31-.7.48-.95.39-.46.67-.61.62-.23,1.02-.23.75.08,1.03.23.5.36.67.6.31.51.43.79.26.66.44,1.13l3.81,9.42c.3.72.45,1.24.45,1.56s-.14.65-.42.93-.62.42-1.02.42c-.23,0-.43-.04-.6-.12s-.31-.2-.42-.34-.23-.36-.36-.66-.24-.56-.33-.78Zm-5.85-4.05h4.36l-2.2-6.02-2.16,6.02Z" style="fill: #f2f2f2; stroke-width: 0px;"/>
        <path d="m78.04,331.84h-5.82v3.73h4.87c.45,0,.79.1,1.01.3s.33.47.33.81-.11.61-.34.81-.56.3-1.01.3h-4.87v4.81c0,.61-.14,1.06-.41,1.36s-.63.44-1.06.44-.79-.15-1.07-.45-.41-.75-.41-1.35v-11.23c0-.42.06-.77.19-1.04s.32-.46.59-.59.61-.18,1.03-.18h6.97c.47,0,.82.1,1.05.31s.34.48.34.82-.11.62-.34.83-.58.31-1.05.31Z" style="fill: #f2f2f2; stroke-width: 0px;"/>
        <path d="m94.34,331.84h-6.66v3.58h6.13c.45,0,.79.1,1.01.3s.33.47.33.8-.11.6-.33.81-.56.31-1.02.31h-6.13v4.15h6.89c.46,0,.81.11,1.05.32s.35.5.35.86-.12.63-.35.84-.59.32-1.05.32h-8.03c-.64,0-1.11-.14-1.39-.43s-.42-.75-.42-1.38v-10.97c0-.42.06-.77.19-1.04s.32-.46.59-.59.61-.18,1.03-.18h7.8c.47,0,.82.1,1.05.31s.34.48.34.82-.11.62-.34.83-.58.31-1.05.31Z" style="fill: #f2f2f2; stroke-width: 0px;"/>
        <path d="m111.18,332.66c0-.62.16-1.18.48-1.69s.79-.91,1.42-1.21,1.36-.45,2.2-.45,1.56.16,2.17.47,1.07.72,1.37,1.22.45,1.03.45,1.57c0,.74-.25,1.39-.74,1.94s-1.21,1.11-2.17,1.68c.33.39.64.76.93,1.11s.56.67.83.97.51.55.73.77c.1-.19.25-.53.46-1.05s.4-.88.59-1.11.44-.34.77-.34c.31,0,.59.11.83.33s.36.49.36.81c0,.29-.1.71-.31,1.24s-.5,1.13-.9,1.78c.25.21.64.53,1.17.97s.86.73.99.88.18.36.18.62c0,.35-.12.64-.37.87s-.53.35-.83.35-.61-.1-.91-.3-.91-.69-1.86-1.46c-.43.4-.88.74-1.34,1s-.96.45-1.48.58-1.12.19-1.77.19c-.83,0-1.57-.12-2.23-.36s-1.21-.57-1.65-.98-.76-.87-.98-1.37-.32-1.01-.32-1.53.08-.95.24-1.37.38-.79.67-1.12.64-.65,1.07-.96.91-.6,1.47-.88c-.5-.62-.87-1.18-1.13-1.67s-.38-.99-.38-1.51Zm2.82,4.77c-.68.39-1.18.78-1.52,1.17s-.5.86-.5,1.39c0,.31.06.6.18.88s.3.54.54.78.51.42.82.55.64.19.99.19.67-.05.99-.16.62-.26.91-.45.58-.44.89-.73c-.59-.54-1.12-1.08-1.59-1.62s-1.04-1.2-1.69-2Zm1.02-2.73c.68-.43,1.17-.79,1.47-1.09s.45-.65.45-1.07-.15-.76-.45-1.04-.68-.42-1.14-.42-.84.14-1.15.43-.46.62-.46,1.01c0,.2.06.41.17.64s.26.46.43.68.4.51.68.86Z" style="fill: #f2f2f2; stroke-width: 0px;"/>
        <path d="m140.38,337.91h-1.04v4.69c0,.62-.14,1.07-.41,1.36s-.63.44-1.07.44c-.47,0-.84-.15-1.1-.46s-.39-.75-.39-1.34v-11.23c0-.64.14-1.1.43-1.38s.75-.43,1.38-.43h4.81c.66,0,1.23.03,1.7.08s.9.17,1.27.34c.46.19.86.47,1.21.83s.62.77.8,1.25.27.98.27,1.51c0,1.09-.31,1.96-.92,2.61s-1.54,1.11-2.79,1.38c.52.28,1.03.69,1.5,1.23s.9,1.12,1.28,1.74.67,1.17.88,1.66.31.83.31,1.02-.06.38-.18.57-.29.34-.5.45-.46.16-.74.16c-.33,0-.61-.08-.84-.23s-.42-.35-.58-.59-.38-.59-.66-1.06l-1.18-1.97c-.42-.72-.8-1.27-1.14-1.65s-.68-.64-1.02-.78-.78-.21-1.3-.21Zm1.69-6.13h-2.73v4.01h2.65c.71,0,1.31-.06,1.79-.18s.85-.33,1.11-.63.38-.7.38-1.22c0-.4-.1-.76-.31-1.07s-.49-.54-.86-.69c-.35-.15-1.03-.22-2.04-.22Z" style="fill: #f2f2f2; stroke-width: 0px;"/>
        <path d="m163.79,331.84h-6.66v3.58h6.13c.45,0,.79.1,1.01.3s.33.47.33.8-.11.6-.33.81-.56.31-1.02.31h-6.13v4.15h6.89c.46,0,.81.11,1.05.32s.35.5.35.86-.12.63-.35.84-.59.32-1.05.32h-8.03c-.64,0-1.11-.14-1.39-.43s-.42-.75-.42-1.38v-10.97c0-.42.06-.77.19-1.04s.32-.46.59-.59.61-.18,1.03-.18h7.8c.47,0,.82.1,1.05.31s.34.48.34.82-.11.62-.34.83-.58.31-1.05.31Z" style="fill: #f2f2f2; stroke-width: 0px;"/>
        <path d="m181.96,339.78c0,.88-.23,1.68-.68,2.38s-1.12,1.25-2,1.65-1.91.6-3.12.6c-1.44,0-2.63-.27-3.56-.82-.66-.39-1.2-.91-1.62-1.57s-.62-1.29-.62-1.91c0-.36.12-.67.37-.92s.57-.38.95-.38c.31,0,.58.1.79.3s.4.49.55.89c.19.46.39.85.6,1.16s.52.57.91.77.91.3,1.54.3c.88,0,1.59-.2,2.14-.61s.82-.92.82-1.53c0-.48-.15-.88-.44-1.18s-.68-.53-1.14-.69-1.09-.33-1.88-.51c-1.05-.25-1.93-.53-2.63-.86s-1.27-.78-1.68-1.34-.62-1.27-.62-2.12.22-1.52.66-2.14,1.07-1.1,1.9-1.44,1.81-.5,2.93-.5c.9,0,1.67.11,2.32.33s1.2.52,1.63.89.75.75.95,1.16.3.8.3,1.18c0,.35-.12.67-.37.95s-.56.42-.93.42c-.34,0-.6-.08-.77-.25s-.37-.45-.57-.83c-.27-.55-.58-.98-.96-1.29s-.97-.46-1.79-.46c-.76,0-1.38.17-1.85.5s-.7.74-.7,1.21c0,.29.08.54.24.76s.38.39.66.55.56.27.85.36.76.21,1.41.38c.82.19,1.57.4,2.23.64s1.23.51,1.7.85.83.75,1.1,1.26.39,1.13.39,1.87Z" style="fill: #f2f2f2; stroke-width: 0px;"/>
        <path d="m197.04,332h-3.23v10.6c0,.61-.14,1.06-.41,1.36s-.62.44-1.06.44-.79-.15-1.07-.45-.41-.75-.41-1.35v-10.6h-3.23c-.5,0-.88-.11-1.12-.33s-.37-.52-.37-.88.13-.68.38-.9.63-.33,1.11-.33h9.4c.51,0,.89.11,1.14.34s.37.52.37.89-.13.66-.38.88-.63.33-1.13.33Z" style="fill: #f2f2f2; stroke-width: 0px;"/>
        <path d="m211.46,342.5l-.7-1.83h-5.93l-.7,1.87c-.27.73-.5,1.22-.7,1.48s-.51.38-.95.38c-.37,0-.7-.14-.99-.41s-.43-.58-.43-.93c0-.2.03-.4.1-.62s.18-.51.33-.89l3.73-9.48c.11-.27.23-.6.38-.98s.31-.7.48-.95.39-.46.67-.61.62-.23,1.02-.23.75.08,1.03.23.5.36.67.6.31.51.43.79.26.66.44,1.13l3.81,9.42c.3.72.45,1.24.45,1.56s-.14.65-.42.93-.62.42-1.02.42c-.23,0-.43-.04-.6-.12s-.31-.2-.42-.34-.23-.36-.36-.66-.24-.56-.33-.78Zm-5.85-4.05h4.36l-2.2-6.02-2.16,6.02Z" style="fill: #f2f2f2; stroke-width: 0px;"/>
        <path d="m219.13,338.12v-7.02c0-.6.13-1.05.4-1.34s.62-.45,1.06-.45.82.15,1.09.45.4.75.4,1.34v7.18c0,.82.09,1.5.27,2.05s.51.97.97,1.27,1.11.45,1.95.45c1.15,0,1.97-.31,2.45-.92s.72-1.54.72-2.79v-7.24c0-.6.13-1.05.4-1.35s.62-.44,1.07-.44.8.15,1.08.44.41.74.41,1.35v7.02c0,1.14-.11,2.09-.33,2.86s-.64,1.43-1.26,2.01c-.53.49-1.15.85-1.85,1.08s-1.53.34-2.47.34c-1.12,0-2.09-.12-2.9-.36s-1.47-.62-1.98-1.12-.89-1.16-1.12-1.95-.36-1.74-.36-2.84Z" style="fill: #f2f2f2; stroke-width: 0px;"/>
        <path d="m241.67,337.91h-1.04v4.69c0,.62-.14,1.07-.41,1.36s-.63.44-1.07.44c-.47,0-.84-.15-1.1-.46s-.39-.75-.39-1.34v-11.23c0-.64.14-1.1.43-1.38s.75-.43,1.38-.43h4.81c.66,0,1.23.03,1.7.08s.9.17,1.27.34c.46.19.86.47,1.21.83s.62.77.8,1.25.27.98.27,1.51c0,1.09-.31,1.96-.92,2.61s-1.54,1.11-2.79,1.38c.52.28,1.03.69,1.5,1.23s.9,1.12,1.28,1.74.67,1.17.88,1.66.31.83.31,1.02-.06.38-.18.57-.29.34-.5.45-.46.16-.74.16c-.33,0-.61-.08-.84-.23s-.42-.35-.58-.59-.38-.59-.66-1.06l-1.18-1.97c-.42-.72-.8-1.27-1.14-1.65s-.68-.64-1.02-.78-.78-.21-1.3-.21Zm1.69-6.13h-2.73v4.01h2.65c.71,0,1.31-.06,1.79-.18s.85-.33,1.11-.63.38-.7.38-1.22c0-.4-.1-.76-.31-1.07s-.49-.54-.86-.69c-.35-.15-1.03-.22-2.04-.22Z" style="fill: #f2f2f2; stroke-width: 0px;"/>
        <path d="m264.8,342.5l-.7-1.83h-5.93l-.7,1.87c-.27.73-.5,1.22-.7,1.48s-.51.38-.95.38c-.37,0-.7-.14-.99-.41s-.43-.58-.43-.93c0-.2.03-.4.1-.62s.18-.51.33-.89l3.73-9.48c.11-.27.23-.6.38-.98s.31-.7.48-.95.39-.46.67-.61.62-.23,1.02-.23.75.08,1.03.23.5.36.67.6.31.51.43.79.26.66.44,1.13l3.81,9.42c.3.72.45,1.24.45,1.56s-.14.65-.42.93-.62.42-1.02.42c-.23,0-.43-.04-.6-.12s-.31-.2-.42-.34-.23-.36-.36-.66-.24-.56-.33-.78Zm-5.85-4.05h4.36l-2.2-6.02-2.16,6.02Z" style="fill: #f2f2f2; stroke-width: 0px;"/>
        <path d="m277.07,331.08l5.68,8.6v-8.68c0-.56.12-.99.36-1.27s.57-.42.98-.42.76.14,1.01.42.37.71.37,1.27v11.48c0,1.28-.53,1.92-1.59,1.92-.27,0-.5-.04-.72-.11s-.41-.2-.6-.36-.36-.36-.52-.58-.32-.45-.48-.68l-5.54-8.5v8.55c0,.56-.13.98-.39,1.26s-.59.43-1,.43-.75-.14-1.01-.43-.38-.71-.38-1.26v-11.26c0-.48.05-.85.16-1.12.13-.3.34-.54.63-.73s.61-.28.95-.28c.27,0,.49.04.68.13s.36.2.5.35.29.34.44.57.3.47.46.73Z" style="fill: #f2f2f2; stroke-width: 0px;"/>
        <path d="m301.29,332h-3.23v10.6c0,.61-.14,1.06-.41,1.36s-.62.44-1.06.44-.79-.15-1.07-.45-.41-.75-.41-1.35v-10.6h-3.23c-.5,0-.88-.11-1.12-.33s-.37-.52-.37-.88.13-.68.38-.9.63-.33,1.11-.33h9.4c.51,0,.89.11,1.14.34s.37.52.37.89-.13.66-.38.88-.63.33-1.13.33Z" style="fill: #f2f2f2; stroke-width: 0px;"/>
      </g>
    </g>
  </g>
</svg>